<svg xmlns="http://www.w3.org/2000/svg" viewBox="0 0 256 256" aria-hidden="true">
  <g transform="translate(67.8 10) scale(0.8933)">
    <path fill="#000" d="M134.9,189.2v75H0v-59l6-11.1l-0.5-57.4L4,135l5-10.6c-8.6-8.8,1.5-13.8,1.5-13.8c-1.7-0.6-0.7-3.7-0.7-3.7l-1.4-1.8l0.8-1.6v-1.7l3.5-1l0.1-26.8l-1.2-0.3v-1.6l6.5-1.8c-2.8-1.8-4.6-5-4.6-8.6c0-5.1,3.7-9.3,8.5-10.1c0.5-0.6,1.1-1.2,1.1-1.2c-1.3-5.8,0-5.9,0-5.9c-3-2,0.2-2.7,0.2-2.7L23,40.5c-1.3-1.1,0.5-2.4,0.5-2.4s0-7.5-0.1-9.3v0l-0.3,0.2l0,0l-1.9,1l0.5-3.1l-2.2-2.2l3.1-0.4l1.4-2.8l1.4,2.8l3.1,0.4l-2.2,2.2l0.5,3.1l-1.8-0.9l-0.3-0.2c0,0.1,0,0.1,0,0.2v0c0,1.1-0.1,9-0.1,9s1.7,1.3,0.4,2.4l-0.2,1.4c0,0,3.2,0.7,0.2,2.7c0,0,1.3,0.1,0,5.9c0,0,0.8,0.8,1.3,1.5c4.4,1.2,7.6,5.2,7.6,9.9c0,3.3-1.6,6.2-4,8.1c1.1,0,5.6,1.8,5.6,1.8l0.2,1.8l-1.2,1.5l0-0.2V75l0,0l2,26.9l1.5,0.2v2.1l0.8,1.6l-1.4,1.8c0,0,0.8,2.4-0.2,3.4l0,0c-0.1,0.1-0.3,0.2-0.5,0.3c0,0,0.2,0.1,0.5,0.3c1.9,1.2,8.4,5.9,1,13.5l3.8,11.1l-1.2,1.2v34.7l0,0.2l14.1,2.6l6.9,1.3l-1.6-52.9l-1.5-2.5l5.7-12.6c0,0-3.7-5.2-1.9-9.3c1.9-4.2,4.3-5.7,4.3-5.7v-3l-1.6-0.4l-0.6-3.4l2.2-1.5l-0.4-29.3L65.2,55v-1.8l8-2.1c-2.5-1.9-4.1-4.8-4.1-8.2c0-5,3.6-9.2,8.3-10.1c0.4-0.5,0.9-1,0.9-1c-1.4-5.8-0.1-5.9-0.1-5.9c-3-2,0.2-2.7,0.2-2.7l-0.2-1.4c-1.3-1,0.4-2.4,0.4-2.4s-0.1-7.9-0.2-9c0-0.1,0-0.1,0-0.2c-2.6-0.3-3-5-3-5.8s-2.7,0.1-2.7,0.1s1.6-5,3.2-2.6c1,1.4,1.5,2.8,1.7,3.7C77.7,6,78,6,78,5.8C78.3,4.2,78.8,0,79.8,0c1.4,0,2.7,3.3,2.7,3.3l-0.9,0.4c-0.6,0.2-1,0.8-0.9,1.5c0.2,1.5,0.2,4.3-1.2,5c0,0.1,0,0.1,0,0.2c0,1.1,0.1,9,0.1,9s1.8,1.3,0.5,2.4l-0.2,1.4c0,0,3.2,0.7,0.3,2.7c0,0,1.3,0.1,0.1,5.9c0,0,0.6,0.6,1.1,1.1c4.7,1,8.2,5.1,8.2,10c0,3.8-2,6.3-5.1,8.1l8.4,1.6l0.8,1.2l-1.5,1.2v29.3l2.3,1.1v2.2l1.1,0.8v1.8l-1.9,0.6l0.1,2.3c0,0,4.9,2.7,4.3,8.3c-0.7,5.6-1.9,5.3-1.9,5.3l6.7,13.6l-1.9,1.8l1.9,61.3L134.9,189.2L134.9,189.2z"/>
  </g>
</svg>
